<svg height='100px' width='100px'  fill="#000000" xmlns="http://www.w3.org/2000/svg" xmlns:xlink="http://www.w3.org/1999/xlink" version="1.1" x="0px" y="0px" viewBox="0 0 512 512" style="enable-background:new 0 0 512 512;" xml:space="preserve"><g><path d="M400.5,373.9c-0.9-6.2-3-11.9-6.1-17.1L167,512H245l159.7-110.3L400.5,373.9z"></path><path d="M410,437l-108.6,75h101.3c4.7,0,9.1-2,12.1-5.6c3-3.5,4.4-8.2,3.7-12.8L410,437z"></path><path d="M292.4,297.1v-61.9c0-7.4,5.1-13.9,12.4-15.6c16-3.7,27.1-17.8,27-34.2c-0.1-18.5-15.2-34.1-33.7-34.8   c-11.5-0.4-22.4,4.8-29.3,14c-3,4-7.8,6.4-12.8,6.4s-9.8-2.4-12.8-6.4c-6.9-9.2-17.8-14.4-29.3-14c-18.5,0.7-33.6,16.2-33.7,34.8   c-0.1,16.4,11,30.5,27,34.2c7.2,1.7,12.4,8.1,12.4,15.6v61.9H292.4z M289.4,171.8l4.1-1c8.6-2,17.2,3.3,19.3,11.9   c2,8.6-3.3,17.2-11.9,19.3l-4.1,1c-1.2,0.3-2.5,0.4-3.7,0.4c-7.2,0-13.8-4.9-15.6-12.3C275.5,182.4,280.8,173.8,289.4,171.8z    M247.8,227.7h16.5c8.8,0,16,7.2,16,16s-7.2,16-16,16h-16.5c-8.8,0-16-7.2-16-16S238.9,227.7,247.8,227.7z M218.9,203.3   c-1.2,0-2.5-0.1-3.7-0.4l-4.1-1c-8.6-2-13.9-10.7-11.9-19.3c2-8.6,10.7-13.9,19.3-11.9l4.1,1c8.6,2,13.9,10.7,11.9,19.3   C232.7,198.4,226.2,203.3,218.9,203.3z"></path><g><path d="M128.5,352.8c-1.9-1.1-3.7-2.2-5.6-3.4c-6,6.8-10.1,15.2-11.5,24.5l-7.3,48.5l66.8-45.2L128.5,352.8z"></path></g><path d="M292.4,349.9v-16.2L97.8,465.4l-4.2,28.2c-0.7,4.6,0.7,9.3,3.7,12.8c3,3.5,7.5,5.6,12.1,5.6h0.8l197.6-134.8   C298.2,371.5,292.4,361.1,292.4,349.9z"></path><path d="M511.8,493.3l-4.8-27.9c-7-41.4-35.8-74.1-73.5-87.3l16.6,110.8c1.2,7.9,0.4,15.8-2.2,23.1H496c4.7,0,9.2-2.1,12.2-5.7   S512.6,498,511.8,493.3z"></path><path d="M61.9,488.9l16.6-110.8C40.8,391.3,12,424,5,465.4l-4.8,27.9c-0.8,4.6,0.5,9.4,3.5,13S11.3,512,16,512h48.1   C61.5,504.7,60.7,496.8,61.9,488.9z"></path><path d="M462,9c-2.7-5.5-8.3-9-14.4-9h-59.5c-4.2,0-8.3,1.7-11.3,4.7l-36.6,36.4c-2.4-0.2-4.9-0.3-7.4-0.3H179.2   c-2.5,0-4.9,0.1-7.3,0.4L135.2,4.7c-3-3-7.1-4.7-11.3-4.7H64.4C58.3,0,52.7,3.5,50,9s-1.9,12.1,1.9,16.9l53.6,67.5   c-2.7,7.9-4.2,16.3-4.2,25.1v131.7c0,30.7,16.5,59.4,43.2,74.8l43.1,24.9V246.6c-9.6-4.3-18.1-10.9-24.7-19.2   c-9.5-11.9-14.7-26.9-14.6-42.1c0.1-17.3,6.8-33.7,18.9-46.2c12.1-12.5,28.3-19.8,45.6-20.4c15.7-0.6,31,4.5,43.2,13.8   c12.2-9.4,27.5-14.4,43.2-13.8c17.3,0.6,33.5,7.8,45.6,20.4c12.1,12.5,18.9,28.9,18.9,46.2c0.1,15.3-5.1,30.2-14.6,42.1   c-6.6,8.3-15.1,14.9-24.7,19.2v103.4l43.1-24.9c26.6-15.4,43.2-44,43.2-74.8V118.6c0-9-1.4-17.5-3.9-25.4l53.4-67.2   C463.9,21.1,464.7,14.6,462,9z M117.3,32L160,74.5c3.1,3.1,3.4,6.8,3.3,8.6c-0.1,1.9-0.8,5.5-4.3,8.2c-2.4,1.9-5.3,2.7-8.3,2.4   c-3-0.3-5.7-1.8-7.6-4.2L97.5,32H117.3z M368.8,89.5c-1.9,2.4-4.6,3.9-7.6,4.2c-3,0.3-6-0.5-8.3-2.4c-3.5-2.8-4.1-6.3-4.3-8.2   c-0.1-1.9,0.2-5.5,3.3-8.6L394.7,32h19.8L368.8,89.5z"></path></g></svg>
